<svg width="16" height="18" viewBox="0 0 16 18" fill="none" xmlns="http://www.w3.org/2000/svg">
<path d="M13.2681 6.62156V4.77366C13.2681 2.14156 10.905 0 8.00061 0C5.09625 0 2.73312 2.14156 2.73312 4.77366V6.62156C1.61345 6.81449 0.757812 7.79029 0.757812 8.96461V15.3982C0.757812 16.7101 1.82547 17.7778 3.13773 17.7778H12.8635C14.1758 17.7778 15.2434 16.7101 15.2434 15.3979V8.96428C15.2434 7.79029 14.3878 6.81449 13.2681 6.62156ZM3.39156 4.77366C3.39156 2.50436 5.45905 0.658436 8.00061 0.658436C10.5422 0.658436 12.6097 2.50436 12.6097 4.77366V6.58436H3.39156V4.77366ZM14.585 15.3979C14.585 16.347 13.8126 17.1193 12.8635 17.1193H3.13773C2.18859 17.1193 1.41625 16.347 1.41625 15.3979V8.96428C1.41625 8.01514 2.18859 7.2428 3.13773 7.2428H12.8635C13.8126 7.2428 14.585 8.01514 14.585 8.96428V15.3979Z" fill="black"/>
<path d="M8.00047 9.21802C7.27421 9.21802 6.68359 9.80863 6.68359 10.5349V12.5102C6.68359 13.2365 7.27421 13.8271 8.00047 13.8271C8.72672 13.8271 9.31734 13.2365 9.31734 12.5102V10.5349C9.31734 9.80863 8.72672 9.21802 8.00047 9.21802ZM8.6589 12.5102C8.6589 12.8733 8.36359 13.1686 8.00047 13.1686C7.63734 13.1686 7.34203 12.8733 7.34203 12.5102V10.5349C7.34203 10.1718 7.63734 9.87645 8.00047 9.87645C8.36359 9.87645 8.6589 10.1718 8.6589 10.5349V12.5102Z" fill="black"/>
</svg>
